<?xml version="1.0" encoding="UTF-8" standalone="no" ?>
<!DOCTYPE svg PUBLIC "-//W3C//DTD SVG 1.1//EN" "http://www.w3.org/Graphics/SVG/1.1/DTD/svg11.dtd">
<svg xmlns="http://www.w3.org/2000/svg" xmlns:xlink="http://www.w3.org/1999/xlink" version="1.1" width="400" height="400" viewBox="0 0 400 400" xml:space="preserve">
<desc>Created with Fabric.js 3.6.2</desc>
<defs>
</defs>
<g transform="matrix(8 0 0 8 200 200)" id="information"  >
<path style="stroke: none; stroke-width: 1; stroke-dasharray: none; stroke-linecap: butt; stroke-dashoffset: 0; stroke-linejoin: miter; stroke-miterlimit: 4; fill: rgb(146,146,146); fill-rule: evenodd; opacity: 1;"  transform=" translate(-16.5, -16.5)" d="M 17 22 L 17 15.75 L 17 15 L 14 15 L 14 16 L 16 16 L 16 22 L 14 22 L 14 23 L 19 23 L 19 22 L 17 22 L 17 22 L 17 22 Z M 16.5 29 C 23.4035597 29 29 23.4035597 29 16.5 C 29 9.59644029 23.4035597 4 16.5 4 C 9.59644029 4 4 9.59644029 4 16.5 C 4 23.4035597 9.59644029 29 16.5 29 L 16.5 29 L 16.5 29 Z M 16.5 28 C 22.8512749 28 28 22.8512749 28 16.5 C 28 10.1487251 22.8512749 5 16.5 5 C 10.1487251 5 5 10.1487251 5 16.5 C 5 22.8512749 10.1487251 28 16.5 28 L 16.5 28 L 16.5 28 Z M 16.5 13 C 17.3284272 13 18 12.3284272 18 11.5 C 18 10.6715728 17.3284272 10 16.5 10 C 15.6715728 10 15 10.6715728 15 11.5 C 15 12.3284272 15.6715728 13 16.5 13 L 16.5 13 L 16.5 13 Z" stroke-linecap="round" />
</g>
</svg>